<?xml version="1.0" encoding="UTF-8"?>
<svg width="160px" height="30px" viewBox="0 0 160 30" version="1.1" xmlns="http://www.w3.org/2000/svg" xmlns:xlink="http://www.w3.org/1999/xlink">
    <!-- Generator: Sketch 50.2 (55047) - http://www.bohemiancoding.com/sketch -->
    <title>Group Copy</title>
    <desc>Created with Sketch.</desc>
    <defs>
        <polygon id="path-1" points="0 30 159.749513 30 159.749513 0 0 0"></polygon>
    </defs>
    <g id="Page-1" stroke="none" stroke-width="1" fill="none" fill-rule="evenodd">
        <g id="产品中心" transform="translate(-479.000000, -26.000000)">
            <g id="Group-Copy" transform="translate(479.000000, 26.000000)">
                <polygon id="Fill-1" fill="#FFFFFF" points="59.3450787 21.88494 59.3450787 15.77634 61.6030562 15.77634 61.6030562 13.32714 59.3450787 13.32714 59.3450787 7.08714 61.7906217 7.08714 61.7906217 4.63794 54.2646292 4.63794 54.2646292 7.08714 56.8989363 7.08714 56.8989363 13.32714 54.452794 13.32714 54.452794 15.77634 56.8989363 15.77634 56.8989363 22.49754 53.7798352 23.32494 54.3730936 25.70094 62.4635805 23.62854 61.8703221 21.25254"></polygon>
                <g id="Group-19">
                    <path d="M69.6874307,12.6447 L75.7027116,12.6447 L75.7027116,10.1955 L69.6874307,10.1955 L69.6874307,7.9347 L75.8914757,7.9347 L75.8914757,5.4855 L69.6874307,5.4855 L69.6874307,3.3189 L67.2412884,3.3189 L67.2412884,5.4855 L62.3609888,5.4855 L62.3609888,7.9347 L67.2412884,7.9347 L67.2412884,10.1955 L62.3609888,10.1955 L62.3609888,12.6447 L67.2412884,12.6447 L67.2412884,15.0933 L62.0787416,15.0933 L62.0787416,17.5425 L67.2412884,17.5425 L67.2412884,26.6823 L69.6874307,26.6823 L69.6874307,17.5425 L73.0690037,17.5425 C73.418367,17.3787 73.9912509,17.9523 73.8210637,18.2961 L73.8210637,22.6293 C73.9912509,23.1153 73.418367,23.4981 73.0690037,23.3823 L71.0986667,23.3823 L71.0986667,25.8321 L73.2571685,25.8321 C74.9458577,25.9839 76.4739476,24.4545 76.267206,22.8177 L76.267206,18.1077 C76.4739476,16.4223 74.9458577,14.8923 73.2571685,15.0933 L69.6874307,15.0933 L69.6874307,12.6447 Z" id="Fill-2" fill="#FFFFFF"></path>
                    <path d="M85.9128689,13.77498 L86.1214082,8.18958 C86.0243296,7.81638 86.4054532,7.43418 86.7763895,7.55838 L89.485603,7.55838 C89.8439551,7.43418 90.2256779,7.81638 90.1411835,8.21418 L90.1411835,13.77498 L85.9128689,13.77498 Z M93.621633,16.22358 L93.621633,13.77498 L92.5873258,13.77498 L92.5873258,8.12298 C92.7089738,6.47778 91.1808839,4.94778 89.5760899,5.10918 L88.8234307,5.10918 L88.8234307,3.13098 L86.3772884,3.13098 L86.3772884,5.10918 C84.9318951,5.10918 83.5410337,6.28698 83.6920449,7.69998 L83.4649288,13.77498 L82.3323446,13.77498 L82.3323446,16.22358 L83.3738427,16.22358 L82.9921199,26.72838 L85.4358652,26.72838 L85.8217828,16.22358 L90.1411835,16.22358 L90.1411835,23.48298 C90.2256779,23.88078 89.8439551,24.26238 89.485603,24.13878 L87.7891236,24.13878 L87.7891236,26.58798 L89.6366142,26.58798 C91.563206,26.74878 92.7089738,25.21878 92.5873258,23.63418 L92.5873258,16.22358 L93.621633,16.22358 Z" id="Fill-4" fill="#FFFFFF"></path>
                    <mask id="mask-2" fill="white">
                        <use xlink:href="#path-1"></use>
                    </mask>
                    <g id="Clip-7"></g>
                    <polygon id="Fill-6" fill="#FFFFFF" mask="url(#mask-2)" points="87.1179026 12.8616 89.2188764 12.8616 89.2188764 8.6538 87.1179026 8.6538"></polygon>
                    <polygon id="Fill-8" fill="#FFFFFF" mask="url(#mask-2)" points="87.013633 21.4602 89.115206 21.4602 89.115206 17.2524 87.013633 17.2524"></polygon>
                    <polygon id="Fill-9" fill="#FFFFFF" mask="url(#mask-2)" points="100.108165 3.21816 97.7908614 3.21816 97.7908614 5.27076 93.5661423 5.27076 93.5661423 7.59036 104.627715 7.59036 104.627715 5.27076 100.108165 5.27076"></polygon>
                    <path d="M99.7090637,8.8707 L98.0407491,8.8707 C96.0698127,8.8707 94.9066667,10.2249 94.7664419,11.9835 L93.8322097,26.7285 L96.1974532,26.7285 L97.1448689,12.0147 C97.180824,11.4501 97.5517603,11.2587 97.8723596,11.3229 L99.8918352,11.3229 C100.307715,11.2587 100.678652,11.6409 100.621124,12.0765 L100.621124,23.5455 C100.539625,25.2189 101.685993,26.7489 103.589813,26.6091 L104.719401,26.6091 L104.719401,24.3489 L103.724045,24.3489 C103.320749,24.3489 102.994157,24.0111 102.994157,23.5953 L102.994157,12.2619 C102.994157,10.3029 101.790262,8.8707 99.7090637,8.8707" id="Fill-10" fill="#FFFFFF" mask="url(#mask-2)"></path>
                    <path d="M125.444075,9.9459 L125.406921,9.9459 C125.435685,9.7797 125.465049,9.5055 125.495011,9.3303 C125.563326,8.9235 125.629243,8.4159 125.690367,8.0253 L129.181603,8.0253 C129.113288,9.9249 128.727371,13.2099 127.223251,16.6335 C126.013963,13.7895 125.444075,11.1651 125.444075,9.9459 M128.517034,19.2753 C129.07194,18.2283 129.556135,17.1471 129.964225,16.0311 C131.097408,12.9279 131.432989,9.9633 131.492914,8.0253 L132.414562,8.0253 L132.414562,5.7129 L126.142801,5.7129 C126.276434,4.7799 126.355536,3.8511 126.356734,3.8385 L123.960929,3.8583 C123.563026,9.3579 121.895311,13.9503 121.353588,14.7501 L122.944599,16.4757 C123.066846,16.2963 123.836884,15.0921 124.000479,14.6487 C124.282127,15.4965 124.83164,16.9155 125.23194,17.8299 C125.426097,18.2709 125.644225,18.7401 125.88812,19.2273 C124.741753,21.1557 123.205873,23.2311 121.150442,25.1097 L122.707895,26.8167 C124.444524,25.2291 125.93606,23.3895 127.177109,21.5253 C128.346247,23.3913 129.874936,25.4019 131.820704,26.8833 L133.218757,25.0431 C131.268195,23.5581 129.710742,21.4035 128.517034,19.2753" id="Fill-11" fill="#FFFFFF" mask="url(#mask-2)"></path>
                    <path d="M117.126592,8.13066 L118.312509,8.13066 C118.02427,8.79966 117.649738,9.62706 117.163745,10.37766 L117.126592,10.37766 L117.126592,8.13066 Z M121.293783,21.38466 L121.293783,19.07226 L119.086742,19.07226 L120.303221,16.73286 C121.148764,15.55866 120.099476,13.87686 118.767341,14.03646 L117.24824,14.03646 C117.645543,13.59906 118.021873,13.15086 118.370037,12.69006 L121.929588,12.69006 L121.929588,10.37766 L119.855581,10.37766 C121.398652,7.49826 121.574831,5.03226 121.574831,4.11126 L119.265318,4.11126 C119.265318,4.31106 119.246742,4.92726 119.05618,5.81826 L117.126592,5.81826 L117.126592,3.79626 L114.817079,3.79626 L114.817079,5.81826 L111.205393,5.81826 L111.205393,8.13066 L114.817079,8.13066 L114.817079,10.37766 L110.490487,10.37766 L110.490487,12.69006 L115.343221,12.69006 C114.028464,14.09046 112.274457,15.50706 109.931386,16.80486 L111.049588,18.82866 C112.415281,18.07146 113.656929,17.24346 114.774532,16.34826 L117.110412,16.34826 C117.580225,16.18926 117.789963,16.71486 117.471161,16.98306 L116.402697,19.07226 L111.310861,19.07226 L111.310861,21.38466 L116.266667,21.38466 L116.266667,23.75046 C116.32,24.07146 116.110861,24.28206 115.846592,24.17046 L112.142022,24.17046 L112.142022,26.48346 L115.846592,26.48346 C117.475356,26.59326 118.839251,25.33266 118.57618,23.75046 L118.57618,21.38466 L121.293783,21.38466 Z" id="Fill-12" fill="#FFFFFF" mask="url(#mask-2)"></path>
                    <path d="M159.350951,9.64062 L158.636045,8.30262 L156.042487,8.30262 L156.571625,9.29562 C156.810127,9.46302 156.705258,9.88302 156.274397,9.71562 L142.299266,9.71562 C141.80009,9.88302 141.694622,9.35742 142.075745,9.17802 L143.97597,7.67862 L159.749453,7.67862 L159.749453,5.36682 L149.984659,5.36682 L149.984659,3.57762 L147.570277,3.57762 L147.570277,5.36682 L138.138067,5.36682 L138.138067,7.67862 L140.515296,7.67862 L139.195146,8.80422 C137.811476,9.88302 138.860764,12.19542 140.537468,12.02802 L157.825858,12.02802 C159.119041,12.19542 159.959191,10.61922 159.350951,9.64062" id="Fill-13" fill="#FFFFFF" mask="url(#mask-2)"></path>
                    <path d="M156.534951,15.86268 L156.534951,16.86528 L141.666337,16.86528 L141.666337,15.86268 C141.590232,15.66348 141.904839,15.34848 142.086412,15.44208 L156.115476,15.44208 C156.390532,15.34848 156.59967,15.66348 156.534951,15.86268 Z M148.865139,20.55348 C144.129258,20.54208 142.602966,20.54568 141.666337,20.56608 L141.666337,19.17708 L156.534951,19.17708 L156.534951,20.58048 C155.261543,20.57508 151.953079,20.56128 148.865139,20.55348 Z M139.252554,26.37768 L141.666337,26.37768 L141.666337,22.87548 C143.555176,22.84428 150.985888,22.86648 156.534951,22.89288 L156.534951,23.75028 C156.59967,23.96628 156.495401,24.17628 156.220345,24.06588 L151.700794,24.06588 L151.700794,26.37768 L156.220345,26.37768 C157.859895,26.48868 159.119521,25.33248 158.948734,23.85588 L158.948734,15.33708 C159.014652,14.08728 157.964764,12.93108 156.745288,13.02528 L141.456599,13.02528 C140.12027,12.93108 139.17585,13.98168 139.252554,15.33708 L139.252554,26.37768 Z" id="Fill-14" fill="#FFFFFF" mask="url(#mask-2)"></path>
                    <path d="M18.0242697,3.5463 C18.5396255,5.0559 18.2729588,8.2281 18.1734831,9.1245 L22.1537079,11.8143 L26.1327341,9.0255 C26.1303371,5.2551 25.8289139,3.6159 24.6405993,2.2509 C22.1255431,-0.6375 18.2975281,-0.1869 16.0341573,0.5577 C16.0341573,0.5577 17.3776779,1.6533 18.0242697,3.5463" id="Fill-15" fill="#FFFFFF" mask="url(#mask-2)"></path>
                    <path d="M11.4640899,17.98908 C11.4089588,17.57748 11.3574232,17.19108 11.3040899,16.83048 C11.2986966,16.79328 11.2903071,16.75608 11.2849139,16.71888 L10.1487341,9.57708 C9.05450187,2.10528 0.696749064,2.80248 -0.000179775281,3.20088 C0.895700375,3.89868 1.69090637,5.49228 1.98993258,7.58448 C2.35787266,10.16568 3.48146816,22.32768 3.67982022,23.62308 C3.87937079,24.91788 5.0712809,28.01508 9.94798502,28.90248 C12.8225918,29.42628 15.6133034,29.70228 17.616,29.84688 C12.806412,28.07388 11.9818427,21.88128 11.4640899,17.98908" id="Fill-16" fill="#FFFFFF" mask="url(#mask-2)"></path>
                    <path d="M42.7931086,2.98086 C40.0862921,2.98026 35.2401498,4.01286 34.4245693,9.57846 L33.287191,16.71966 C33.0085393,18.61926 32.1168539,20.37186 30.5066667,21.04266 C34.74397,20.99106 40.9276404,20.49066 41.7162547,15.66606 C42.05603,12.27306 42.4065918,8.82606 42.5833708,7.58706 C42.8817978,5.49486 43.7597004,3.95046 44.6549813,3.25266 C44.4782022,3.15126 43.7195506,2.98086 42.7931086,2.98086" id="Fill-17" fill="#FFFFFF" mask="url(#mask-2)"></path>
                    <path d="M29.3532884,21.31542 C29.2418277,21.32442 29.1315655,21.33342 29.0159101,21.33342 C29.0159101,21.33342 26.9622772,21.43242 26.8130637,19.88862 C26.7022022,18.74742 26.4313408,12.40602 26.4313408,12.40602 L22.2857228,16.50882 L18.0274457,12.40602 C18.0274457,12.40602 17.8692434,18.74682 17.7589813,19.88802 C17.6091685,21.43182 15.5555356,21.33222 15.5555356,21.33222 C13.7026517,21.33222 12.4885693,20.19042 11.8210037,18.64662 C12.4178577,23.02362 13.4869213,28.97442 18.9778577,29.93262 C19.9893933,29.98782 20.5934382,29.99982 20.5934382,29.99982 L22.2851236,30.00042 L23.976809,30.00042 C23.976809,30.00042 29.1501423,29.90022 34.6225019,28.90422 C39.4998052,28.01742 40.6923146,24.92022 40.8912659,23.62542 C40.9805543,23.03982 41.2604045,20.23242 41.5738127,17.09442 C39.7347116,21.23202 33.2058727,21.31362 29.3532884,21.31542" id="Fill-18" fill="#FFFFFF" mask="url(#mask-2)"></path>
                </g>
            </g>
        </g>
    </g>
</svg>